<?xml version="1.0" encoding="utf-8"?>
<svg width="16px" height="16px" viewBox="0 0 16 16" version="1.1" xmlns="http://www.w3.org/2000/svg" xmlns:xlink="http://www.w3.org/1999/xlink">
    <title>Pinterest</title>
	<path d="M8,0C3.6,0,0,3.6,0,8c0,3.4,2.1,6.3,5.1,7.4c-0.1-0.6-0.1-1.6,0-2.3c0.1-0.6,0.9-4,0.9-4S5.8,8.7,5.8,8
	C5.8,6.9,6.5,6,7.3,6c0.7,0,1,0.5,1,1.1c0,0.7-0.4,1.7-0.7,2.7c-0.2,0.8,0.4,1.4,1.2,1.4c1.4,0,2.5-1.5,2.5-3.7
	c0-1.9-1.4-3.3-3.3-3.3c-2.3,0-3.6,1.7-3.6,3.5c0,0.7,0.3,1.4,0.6,1.8C5,9.7,5,9.8,5,9.9c-0.1,0.3-0.2,0.8-0.2,0.9
	c0,0.1-0.1,0.2-0.3,0.1c-1-0.5-1.6-1.9-1.6-3.1C2.9,5.3,4.7,3,8.2,3c2.8,0,4.9,2,4.9,4.6c0,2.8-1.7,5-4.2,5c-0.8,0-1.6-0.4-1.8-0.9
	c0,0-0.4,1.5-0.5,1.9c-0.2,0.7-0.7,1.6-1,2.1C6.4,15.9,7.2,16,8,16c4.4,0,8-3.6,8-8C16,3.6,12.4,0,8,0z"/>
</svg>
