<?xml version="1.0" encoding="UTF-8" standalone="no"?>
<svg width="16px" height="16px" viewBox="0 0 16 16" version="1.1" xmlns="http://www.w3.org/2000/svg" xmlns:xlink="http://www.w3.org/1999/xlink">
    <title>Google+</title>
	<path d="M3.43553771,3.27334725 C2.193025,3.68995932 1.13428349,4.60113024 0.544569948,5.75420494 C0.338855923,6.15200227 0.190741825,6.57398998 0.100227654,7.01210461 C-0.124686346,8.09798381 0.0316563126,9.25643415 0.541827094,10.2455518 C0.873712387,10.8906286 1.35096892,11.465822 1.92696819,11.9146879 C2.47279607,12.3393635 3.10639527,12.6565262 3.78113727,12.8312345 C4.6314219,13.0543235 5.53656361,13.0489479 6.39233396,12.8581127 C7.16581869,12.6834044 7.89816062,12.3205487 8.48238845,11.793736 C9.09953052,11.2373573 9.54112996,10.5062704 9.77427252,9.71873915 C10.0293579,8.86132464 10.0622722,7.94477808 9.90318664,7.06317318 L5.10319273,7.06317318 L5.10319273,9.01453036 L7.88444635,9.01453036 C7.77747506,9.63810456 7.39896125,10.2079224 6.86410479,10.5600268 C6.52673379,10.7831158 6.13999142,10.9255702 5.73953478,10.9954536 C5.33907815,11.0626491 4.92216439,11.0707125 4.52170776,10.9927657 C4.11302256,10.9121311 3.7262802,10.7454863 3.38616634,10.511646 C2.84308132,10.138039 2.42891041,9.59241162 2.21771068,8.97690089 C2.00102524,8.35063887 1.99828239,7.65449354 2.21771068,7.03091935 C2.37131049,6.5901169 2.62365302,6.18425611 2.95828117,5.85096645 C3.36970922,5.4370422 3.90456568,5.14138202 4.48330781,5.02043013 C4.97702147,4.91829298 5.49816366,4.93710772 5.98090591,5.07956216 C6.39233396,5.20051406 6.77084776,5.4236031 7.08079023,5.71388764 C7.39347554,5.40747618 7.70616086,5.10106472 8.01884618,4.79465327 C8.1834174,4.63069626 8.35621718,4.47211489 8.51530269,4.30278224 C8.04078901,3.87273107 7.48124686,3.52600232 6.87233335,3.30560109 C5.77519188,2.90780376 4.54090773,2.8997403 3.43553771,3.27334725 L3.43553771,3.27334725 Z"></path>
	<path d="M16,8.07832423 L14.0892857,8.07832423 L14.0892857,10 L12.9196429,10 L12.9196429,8.07832423 L11,8.07832423 L11,6.92167577 L12.9107143,6.92167577 L12.9107143,5 L14.0803571,5 L14.0803571,6.92167577 L16,6.92167577 L16,8.07832423 Z"></path>
</svg>