<?xml version="1.0" encoding="UTF-8"?>
<svg width="16px" height="12px" viewBox="0 0 16 12" version="1.1" xmlns="http://www.w3.org/2000/svg" xmlns:xlink="http://www.w3.org/1999/xlink">
  <title>Youtube</title>
  <path d="M6.4,8 L6.4,3.2 L10.4,5.60009171 L6.4,8 Z M15.6656364,1.74891613 C15.4816364,1.06047742 14.9394545,0.51836129 14.2510909,0.334374194 C13.0033636,0 8,0 8,0 C8,0 2.99663636,0 1.74890909,0.334374194 C1.06054545,0.51836129 0.518363636,1.06047742 0.334363636,1.74891613 C0,2.99663226 0,5.6 0,5.6 C0,5.6 0,8.20327742 0.334363636,9.45108387 C0.518363636,10.1395226 1.06054545,10.6816387 1.74890909,10.8657161 C2.99663636,11.2 8,11.2 8,11.2 C8,11.2 13.0033636,11.2 14.2510909,10.8657161 C14.9394545,10.6816387 15.4816364,10.1395226 15.6656364,9.45108387 C16,8.20327742 16,5.6 16,5.6 C16,5.6 16,2.99663226 15.6656364,1.74891613 Z"></path>
</svg>
