<?xml version="1.0" encoding="UTF-8"?><!DOCTYPE svg PUBLIC "-//W3C//DTD SVG 1.1//EN" "http://www.w3.org/Graphics/SVG/1.1/DTD/svg11.dtd"><svg xmlns="http://www.w3.org/2000/svg" xmlns:xlink="http://www.w3.org/1999/xlink"><symbol id="shr-facebook"><path d="M12 6v3H9v7H6V9H3V6h3V5c0-1.444 0-3 1-4 .984-.984 1.766-1 2.943-1H12v3h-2c-.598 0-1 .402-1 1v2h3z"/></symbol><symbol id="shr-github"><path d="M8 .2c-4.4 0-8 3.6-8 8 0 3.5 2.3 6.5 5.5 7.6.4.1.5-.2.5-.4V14c-2.2.5-2.7-1-2.7-1-.4-.9-.9-1.2-.9-1.2-.7-.5.1-.5.1-.5.8.1 1.2.8 1.2.8.7 1.3 1.9.9 2.3.7.1-.5.3-.9.5-1.1-1.8-.2-3.6-.9-3.6-4 0-.9.3-1.6.8-2.1-.1-.2-.4-1 .1-2.1 0 0 .7-.2 2.2.8.6-.2 1.3-.3 2-.3s1.4.1 2 .3c1.5-1 2.2-.8 2.2-.8.4 1.1.2 1.9.1 2.1.5.6.8 1.3.8 2.1 0 3.1-1.9 3.7-3.7 3.9.3.4.6.9.6 1.6v2.2c0 .2.1.5.6.4 3.2-1.1 5.5-4.1 5.5-7.6-.1-4.4-3.7-8-8.1-8z"/></symbol><symbol id="shr-google"><path d="M3.436 3.273A5.1 5.1 0 0 0 .545 5.754 4.86 4.86 0 0 0 .1 7.012a4.927 4.927 0 0 0 .442 3.234 5.07 5.07 0 0 0 1.385 1.669c.546.424 1.18.742 1.854.916.85.223 1.756.218 2.611.027a4.663 4.663 0 0 0 2.09-1.064 4.528 4.528 0 0 0 1.292-2.075 5.757 5.757 0 0 0 .13-2.656h-4.8v1.952h2.78a2.351 2.351 0 0 1-1.02 1.545 2.957 2.957 0 0 1-1.124.435c-.4.068-.818.076-1.218-.002a3.052 3.052 0 0 1-1.136-.481 3.098 3.098 0 0 1-1.168-1.535 2.976 2.976 0 0 1 0-1.946c.153-.44.406-.847.74-1.18a3.043 3.043 0 0 1 3.023-.771c.411.12.79.344 1.1.634l.938-.92c.164-.163.337-.322.496-.491a4.992 4.992 0 0 0-1.643-.997 5.249 5.249 0 0 0-3.436-.033zM16 8.078h-1.91V10h-1.17V8.078H11V6.922h1.91V5h1.17v1.922H16v1.156z"/></symbol><symbol id="shr-pinterest"><path d="M8 0C3.6 0 0 3.6 0 8c0 3.4 2.1 6.3 5.1 7.4-.1-.6-.1-1.6 0-2.3.1-.6.9-4 .9-4s-.2-.4-.2-1.1c0-1.1.7-2 1.5-2 .7 0 1 .5 1 1.1 0 .7-.4 1.7-.7 2.7-.2.8.4 1.4 1.2 1.4 1.4 0 2.5-1.5 2.5-3.7 0-1.9-1.4-3.3-3.3-3.3-2.3 0-3.6 1.7-3.6 3.5 0 .7.3 1.4.6 1.8v.4c-.1.3-.2.8-.2.9 0 .1-.1.2-.3.1-1-.5-1.6-1.9-1.6-3.1C2.9 5.3 4.7 3 8.2 3c2.8 0 4.9 2 4.9 4.6 0 2.8-1.7 5-4.2 5-.8 0-1.6-.4-1.8-.9 0 0-.4 1.5-.5 1.9-.2.7-.7 1.6-1 2.1.8.2 1.6.3 2.4.3 4.4 0 8-3.6 8-8s-3.6-8-8-8z"/></symbol><symbol id="shr-twitter"><path d="M16 3c-.6.3-1.2.4-1.9.5.7-.4 1.2-1 1.4-1.8-.6.4-1.3.6-2.1.8-.6-.6-1.5-1-2.4-1-1.7 0-3.2 1.5-3.2 3.3 0 .3 0 .5.1.7-2.7-.1-5.2-1.4-6.8-3.4-.3.5-.4 1-.4 1.7 0 1.1.6 2.1 1.5 2.7-.5 0-1-.2-1.5-.4C.7 7.7 1.8 9 3.3 9.3c-.3.1-.6.1-.9.1-.2 0-.4 0-.6-.1.4 1.3 1.6 2.3 3.1 2.3-1.1.9-2.5 1.4-4.1 1.4H0c1.5.9 3.2 1.5 5 1.5 6 0 9.3-5 9.3-9.3v-.4C15 4.3 15.6 3.7 16 3z"/></symbol><symbol id="shr-youtube"><path d="M6.4 8V3.2l4 2.4-4 2.4zm9.266-6.251A2.004 2.004 0 0 0 14.25.334C13.003 0 8 0 8 0S2.997 0 1.749.334A2.004 2.004 0 0 0 .334 1.75C0 2.997 0 5.6 0 5.6s0 2.603.334 3.851c.184.689.727 1.23 1.415 1.415C2.997 11.2 8 11.2 8 11.2s5.003 0 6.251-.334a2.004 2.004 0 0 0 1.415-1.415C16 8.203 16 5.6 16 5.6s0-2.603-.334-3.851z"/></symbol></svg>