<?xml version="1.0" encoding="UTF-8"?><!DOCTYPE svg PUBLIC "-//W3C//DTD SVG 1.1//EN" "http://www.w3.org/Graphics/SVG/1.1/DTD/svg11.dtd"><svg xmlns="http://www.w3.org/2000/svg"><symbol id="shr-facebook" viewBox="0 0 16 16"><title>Facebook</title><path d="M12 6v3H9v7H6V9H3V6h3V5c0-1.444 0-3 1-4 .984-.984 1.766-1 2.943-1H12v3h-2c-.598 0-1 .402-1 1v2h3z"/></symbol><symbol id="shr-github" viewBox="0 0 16 16"><title>GitHub</title><path d="M8 .2c-4.4 0-8 3.6-8 8 0 3.5 2.3 6.5 5.5 7.6.4.1.5-.2.5-.4V14c-2.2.5-2.7-1-2.7-1-.4-.9-.9-1.2-.9-1.2-.7-.5.1-.5.1-.5.8.1 1.2.8 1.2.8.7 1.3 1.9.9 2.3.7.1-.5.3-.9.5-1.1-1.8-.2-3.6-.9-3.6-4 0-.9.3-1.6.8-2.1-.1-.2-.4-1 .1-2.1 0 0 .7-.2 2.2.8.6-.2 1.3-.3 2-.3s1.4.1 2 .3c1.5-1 2.2-.8 2.2-.8.4 1.1.2 1.9.1 2.1.5.6.8 1.3.8 2.1 0 3.1-1.9 3.7-3.7 3.9.3.4.6.9.6 1.6v2.2c0 .2.1.5.6.4 3.2-1.1 5.5-4.1 5.5-7.6-.1-4.4-3.7-8-8.1-8z"/></symbol><symbol id="shr-google" viewBox="0 0 16 16"><title>Google+</title><path d="M3.436 3.273C2.193 3.69 1.134 4.6.546 5.753c-.207.4-.355.82-.446 1.26-.225 1.085-.068 2.243.442 3.233.332.645.81 1.22 1.385 1.67.546.423 1.18.74 1.854.915.85.224 1.757.22 2.612.028.774-.175 1.506-.537 2.09-1.064.618-.557 1.06-1.288 1.292-2.075.255-.86.288-1.775.13-2.657h-4.8v1.952h2.78c-.107.623-.485 1.193-1.02 1.545-.337.223-.724.366-1.124.435-.4.068-.818.076-1.218-.002-.41-.08-.796-.248-1.136-.48-.543-.375-.957-.92-1.168-1.536-.217-.626-.22-1.323 0-1.946.153-.44.406-.846.74-1.18.412-.413.947-.71 1.525-.83.494-.102 1.015-.083 1.498.06.412.12.79.344 1.1.634l.94-.92c.163-.163.336-.322.495-.49-.474-.43-1.034-.778-1.643-.998-1.097-.398-2.33-.406-3.436-.033zM16 8.078h-1.91V10h-1.17V8.078H11V6.922h1.91V5h1.17v1.922H16v1.156z"/></symbol><symbol id="shr-pinterest" viewBox="0 0 16 16"><title>Pinterest</title><path d="M8 0C3.6 0 0 3.6 0 8c0 3.4 2.1 6.3 5.1 7.4-.1-.6-.1-1.6 0-2.3.1-.6.9-4 .9-4s-.2-.4-.2-1.1c0-1.1.7-2 1.5-2 .7 0 1 .5 1 1.1 0 .7-.4 1.7-.7 2.7-.2.8.4 1.4 1.2 1.4 1.4 0 2.5-1.5 2.5-3.7 0-1.9-1.4-3.3-3.3-3.3-2.3 0-3.6 1.7-3.6 3.5 0 .7.3 1.4.6 1.8v.4c-.1.3-.2.8-.2.9 0 .1-.1.2-.3.1-1-.5-1.6-1.9-1.6-3.1C2.9 5.3 4.7 3 8.2 3c2.8 0 4.9 2 4.9 4.6 0 2.8-1.7 5-4.2 5-.8 0-1.6-.4-1.8-.9 0 0-.4 1.5-.5 1.9-.2.7-.7 1.6-1 2.1.8.2 1.6.3 2.4.3 4.4 0 8-3.6 8-8s-3.6-8-8-8z"/></symbol><symbol id="shr-twitter" viewBox="0 0 16 16"><title>Twitter</title><path d="M16 3c-.6.3-1.2.4-1.9.5.7-.4 1.2-1 1.4-1.8-.6.4-1.3.6-2.1.8-.6-.6-1.5-1-2.4-1-1.7 0-3.2 1.5-3.2 3.3 0 .3 0 .5.1.7-2.7-.1-5.2-1.4-6.8-3.4-.3.5-.4 1-.4 1.7 0 1.1.6 2.1 1.5 2.7-.5 0-1-.2-1.5-.4C.7 7.7 1.8 9 3.3 9.3c-.3.1-.6.1-.9.1-.2 0-.4 0-.6-.1.4 1.3 1.6 2.3 3.1 2.3-1.1.9-2.5 1.4-4.1 1.4H0c1.5.9 3.2 1.5 5 1.5 6 0 9.3-5 9.3-9.3v-.4C15 4.3 15.6 3.7 16 3z"/></symbol></svg>