<?xml version="1.0" encoding="UTF-8"?><!DOCTYPE svg PUBLIC "-//W3C//DTD SVG 1.1//EN" "http://www.w3.org/Graphics/SVG/1.1/DTD/svg11.dtd"><svg xmlns="http://www.w3.org/2000/svg"><symbol id="shr-facebook" viewBox="0 0 20 20"><path d="M17 1H3c-1.1 0-2 .9-2 2v14c0 1.1.9 2 2 2h7v-7H8V9.525h2v-2.05c0-2.164 1.212-3.684 3.766-3.684l1.803.003v2.605H14.37c-.994 0-1.372.746-1.372 1.438v1.69h2.568L15 12h-2v7h4c1.1 0 2-.9 2-2V3c0-1.1-.9-2-2-2z"/></symbol><symbol id="shr-github" viewBox="0 0 20 20"><path d="M13.18 11.31c-.718 0-1.3.806-1.3 1.798 0 .994.582 1.8 1.3 1.8s1.3-.806 1.3-1.8c0-.992-.582-1.8-1.3-1.8zm4.526-4.684c.15-.365.155-2.44-.635-4.426 0 0-1.81.2-4.55 2.08-.575-.16-1.548-.238-2.52-.238s-1.944.078-2.52.238C4.74 2.4 2.93 2.2 2.93 2.2c-.79 1.987-.782 4.06-.635 4.426C1.367 7.634.8 8.846.8 10.496c0 7.187 5.963 7.302 7.467 7.302L10 17.8l1.733-.002c1.506 0 7.467-.115 7.467-7.3 0-1.653-.566-2.864-1.494-3.872zm-7.678 10.29h-.056c-3.77 0-6.71-.45-6.71-4.116 0-.88.31-1.693 1.048-2.37 1.227-1.126 3.305-.53 5.662-.53H10.028c2.357 0 4.436-.596 5.664.53.735.677 1.045 1.49 1.045 2.37 0 3.666-2.937 4.115-6.71 4.115zM6.82 11.308c-.717 0-1.3.806-1.3 1.798 0 .994.583 1.8 1.3 1.8s1.302-.806 1.302-1.8c0-.992-.582-1.8-1.3-1.8z"/></symbol><symbol id="shr-google" viewBox="0 0 20 20"><path d="M1.99 5.59c0 1.493.498 2.57 1.48 3.204.807.52 1.74.598 2.227.598.118 0 .213-.006.28-.01 0 0-.155 1.004.59 1.996H6.53c-1.29 0-5.493.27-5.493 3.727 0 3.516 3.86 3.695 4.635 3.695.06 0 .097-.002.097-.002.008 0 .063.002.158.002.497 0 1.782-.062 2.975-.643 1.548-.75 2.333-2.06 2.333-3.885 0-1.764-1.196-2.814-2.07-3.582-.532-.47-.993-.873-.993-1.266 0-.4.337-.7.762-1.082.69-.615 1.34-1.492 1.34-3.15 0-1.457-.19-2.436-1.355-3.057.12-.062.55-.107.763-.137.63-.086 1.554-.184 1.554-.7V1.2h-4.6c-.046.002-4.65.172-4.65 4.39zM9.412 14.6c.088 1.406-1.115 2.443-2.922 2.574-1.834.135-3.344-.69-3.432-2.096-.043-.676.254-1.336.835-1.863.59-.533 1.398-.863 2.278-.928.105-.007.208-.013.31-.013 1.7 0 2.85 1 2.933 2.325zm-1.2-9.976c.45 1.588-.23 3.246-1.317 3.553-.125.034-.253.05-.384.05-.994 0-1.98-1.005-2.345-2.392-.204-.776-.187-1.458.047-2.112.23-.645.643-1.078 1.163-1.225.125-.034.254-.052.385-.052 1.2 0 1.972.498 2.45 2.178zM16 8V5h-2v3h-3v2h3v3h2v-3h3V8h-3z"/></symbol><symbol id="shr-pinterest" viewBox="0 0 20 20"><path d="M8.617 13.227C8.09 15.98 7.45 18.62 5.55 20c-.587-4.162.86-7.287 1.533-10.605-1.147-1.93.138-5.812 2.555-4.855 2.975 1.176-2.576 7.172 1.15 7.922 3.89.78 5.48-6.75 3.066-9.2C10.37-.274 3.708 3.18 4.528 8.246c.2 1.238 1.478 1.613.51 3.322-2.23-.494-2.896-2.254-2.81-4.6.138-3.84 3.45-6.527 6.77-6.9 4.202-.47 8.145 1.543 8.69 5.494.613 4.462-1.896 9.294-6.39 8.946-1.217-.095-1.727-.7-2.68-1.28z"/></symbol><symbol id="shr-twitter" viewBox="0 0 20 20"><path d="M17.316 6.246c.008.162.01.326.01.488 0 4.99-3.796 10.742-10.74 10.742-2.132 0-4.115-.625-5.786-1.697.296.034.596.052.9.052 1.77 0 3.397-.604 4.688-1.615-1.65-.03-3.046-1.12-3.526-2.62.23.042.467.065.71.065.345 0 .68-.045.995-.13C2.84 11.18 1.54 9.657 1.54 7.827V7.78c.508.284 1.09.454 1.71.474-1.014-.678-1.68-1.832-1.68-3.143 0-.69.185-1.34.51-1.897C3.943 5.498 6.726 7 9.863 7.158c-.064-.277-.097-.564-.097-.86 0-2.085 1.69-3.774 3.774-3.774 1.085 0 2.066.457 2.755 1.19.86-.17 1.667-.483 2.397-.915-.282.88-.88 1.62-1.66 2.087.764-.092 1.49-.293 2.168-.594-.506.758-1.146 1.422-1.884 1.953z"/></symbol></svg>